<svg width="24" height="24" viewBox="0 0 24 24" fill="none" xmlns="http://www.w3.org/2000/svg">
<g clip-path="url(#clip0_23_12)">
<path d="M12.2449 9.81821V14.4655H18.8349C18.5455 15.9601 17.6771 17.2256 16.3747 18.0765L20.3488 21.0983C22.6642 19.0038 24 15.9274 24 12.2729C24 11.422 23.9221 10.6037 23.7773 9.81834L12.2449 9.81821Z" fill="#4285F4"/>
<path d="M5.38247 14.2841L4.48618 14.9565L1.31357 17.3783C3.32842 21.2946 7.458 24.0001 12.2446 24.0001C15.5507 24.0001 18.3225 22.931 20.3485 21.0983L16.3745 18.0765C15.2836 18.7965 13.8921 19.2329 12.2446 19.2329C9.06096 19.2329 6.35602 17.1274 5.38748 14.291L5.38247 14.2841Z" fill="#34A853"/>
<path d="M1.31359 6.62186C0.478754 8.23634 0.000137329 10.0582 0.000137329 12C0.000137329 13.9418 0.478754 15.7637 1.31359 17.3781C1.31359 17.389 5.3879 14.2799 5.3879 14.2799C5.143 13.5599 4.99824 12.7963 4.99824 11.9999C4.99824 11.2034 5.143 10.4398 5.3879 9.71981L1.31359 6.62186Z" fill="#FBBC05"/>
<path d="M12.2449 4.7782C14.0483 4.7782 15.6512 5.3891 16.9314 6.56731L20.4378 3.13097C18.3117 1.18917 15.5511 0 12.2449 0C7.45826 0 3.32842 2.69456 1.31357 6.62186L5.38775 9.72007C6.35615 6.88366 9.06121 4.7782 12.2449 4.7782Z" fill="#EA4335"/>
</g>
<defs>
<clipPath id="clip0_23_12">
<rect width="24" height="24" fill="white"/>
</clipPath>
</defs>
</svg>
