<svg width="24" height="22" viewBox="0 0 24 22" fill="none" xmlns="http://www.w3.org/2000/svg">
<g clip-path="url(#clip0_21_102)">
<mask id="mask0_21_102" style="mask-type:luminance" maskUnits="userSpaceOnUse" x="-88" y="-87" width="204" height="143">
<path d="M-87.2766 -86.2316H115.552V55.8909H-87.2766V-86.2316Z" fill="white"/>
</mask>
<g mask="url(#mask0_21_102)">
<path d="M11.9998 0.238731C5.50624 0.238731 0.240921 4.35858 0.240921 9.44369C0.240921 12.71 2.42173 15.5779 5.6968 17.2147L4.58881 21.3133C4.54641 21.4392 4.58158 21.5724 4.67361 21.6631C4.73698 21.7264 4.82154 21.7612 4.91333 21.7612C4.98416 21.7612 5.05451 21.7333 5.11811 21.6844L9.88231 18.4947C10.5742 18.5926 11.2801 18.6484 11.9998 18.6484C18.4933 18.6484 23.7591 14.5288 23.7591 9.44369C23.7591 4.35858 18.4933 0.238731 11.9998 0.238731Z" fill="#3C1E1E"/>
</g>
</g>
<defs>
<clipPath id="clip0_21_102">
<rect width="24" height="22" fill="white"/>
</clipPath>
</defs>
</svg>
