<svg width="400" height="300" viewBox="0 0 400 300" fill="none" xmlns="http://www.w3.org/2000/svg">
<path fill-rule="evenodd" clip-rule="evenodd" d="M345.145 112H400V187H345.402C328.925 251.95 270.074 300 200 300C129.926 300 71.0749 251.95 54.5979 187H0V112H54.8553C71.6801 47.5578 130.286 0 200 0C269.714 0 328.32 47.5578 345.145 112ZM200.5 262C262.632 262 313 211.632 313 149.5C313 87.368 262.632 37 200.5 37C138.368 37 88 87.368 88 149.5C88 211.632 138.368 262 200.5 262ZM199.7 202.5C194 202.5 185.15 200.25 183.65 195.15L168.5 140.4L161.6 207.9H133.25L145.85 101.85C146.75 92.7 154.85 87.45 161.6 86.85C168.8 86.25 178.85 89.25 181.55 99.15L199.7 167.85L217.85 99.15C220.55 89.25 230.6 86.25 237.8 86.85C244.55 87.45 252.65 92.7 253.55 101.85L266.15 207.9H237.8L231.05 139.95L215.75 195.15C214.25 200.25 205.4 202.5 199.7 202.5Z" fill="#749BC2"/>
</svg>
